<svg xmlns="http://www.w3.org/2000/svg" fill="none" viewBox="0 0 88 30">
  <g clip-path="url(#N9Lz4M3RYa)" fill="#000">
    <path d="M20.4 15.94c-.037-3.795 3.1-5.62 3.242-5.706-1.766-2.58-4.51-2.935-5.486-2.975-2.334-.238-4.556 1.375-5.743 1.375-1.187 0-3.015-1.342-4.951-1.302-2.548.036-4.896 1.48-6.21 3.76C-1.39 15.673.58 22.477 3.16 26.2c1.263 1.82 2.761 3.872 4.737 3.796 1.904-.076 2.62-1.23 4.915-1.23 2.294 0 2.942 1.23 4.95 1.194 2.045-.04 3.34-1.86 4.592-3.687 1.44-2.117 2.038-4.162 2.074-4.27-.047-.019-3.984-1.528-4.028-6.062zM16.625 4.791C17.675 3.521 18.38 1.76 18.188 0c-1.509.062-3.336 1.006-4.418 2.276-.97 1.122-1.82 2.917-1.59 4.64 1.677.13 3.399-.858 4.445-2.125zm17.008 14.88l-1.737 5.266h-2.233L35.35 8.204h2.605l5.707 16.733h-2.309l-1.787-5.265h-5.932zm5.486-1.69l-1.635-4.816c-.373-1.093-.62-2.084-.869-3.054h-.047a52.91 52.91 0 01-.843 3.029l-1.636 4.838 5.03.004zm6.236-1.139a79.05 79.05 0 00-.102-3.923h1.962l.101 2.063h.047c.894-1.466 2.309-2.334 4.27-2.334 2.906 0 5.088 2.457 5.088 6.108 0 4.321-2.63 6.453-5.46 6.453-1.59 0-2.979-.695-3.699-1.886h-.047v6.529h-2.16v-13.01zm2.157 3.203c0 .325.047.618.1.893.399 1.513 1.712 2.559 3.28 2.559 2.308 0 3.65-1.885 3.65-4.643 0-2.41-1.266-4.466-3.575-4.466-1.487 0-2.877 1.068-3.303 2.707-.077.272-.149.597-.149.894l-.004 2.056zm11.468-3.203c0-1.538-.047-2.783-.102-3.923h1.962l.1 2.063h.048c.894-1.466 2.309-2.334 4.27-2.334 2.906 0 5.088 2.457 5.088 6.108 0 4.321-2.63 6.453-5.46 6.453-1.59 0-2.979-.695-3.699-1.886h-.047v6.529h-2.16v-13.01zm2.16 3.203c0 .325.047.618.101.893.398 1.513 1.712 2.559 3.279 2.559 2.309 0 3.651-1.885 3.651-4.643 0-2.41-1.266-4.466-3.575-4.466-1.487 0-2.877 1.068-3.304 2.707-.076.272-.148.597-.148.894l-.004 2.056zM72.608 7.31h2.186v17.624h-2.186V7.31zm6.579 12.015c.047 2.952 1.936 4.172 4.118 4.172 1.563 0 2.508-.271 3.326-.619l.373 1.564c-.768.347-2.085.745-3.996.745-3.698 0-5.91-2.432-5.91-6.058s2.136-6.481 5.635-6.481c3.923 0 4.965 3.448 4.965 5.66 0 .448-.047.792-.075 1.017h-8.436zm6.405-1.564c.026-1.39-.572-3.55-3.029-3.55-2.21 0-3.177 2.037-3.35 3.55h6.38z"/>
  </g>
  <defs>
    <clipPath id="N9Lz4M3RYa">
      <path fill="#fff" d="M0 0h87.702v30H0z"/>
    </clipPath>
  </defs>
</svg>
