<svg xmlns="http://www.w3.org/2000/svg" fill="none" viewBox="0 0 92 30">
  <g clip-path="url(#PWqOyCqiXOa)" fill="#000">
    <path d="M11.32.003h.817c2.837.062 5.628 1.203 7.633 3.223-.74.756-1.496 1.48-2.22 2.237-1.126-1.018-2.483-1.805-3.964-2.082-2.19-.463-4.55-.047-6.384 1.202C5.197 5.894 3.84 8.115 3.547 10.49c-.324 2.344.34 4.811 1.866 6.631a8.254 8.254 0 006.014 2.961c2.16.123 4.41-.54 5.984-2.051 1.233-1.064 1.804-2.683 1.99-4.256-2.56 0-5.12.015-7.68 0v-3.177H22.5c.555 3.408-.247 7.248-2.838 9.684-1.727 1.728-4.117 2.745-6.554 2.946-2.36.231-4.796-.216-6.893-1.357C3.7 20.529 1.696 18.262.709 15.594-.216 13.142-.23 10.367.632 7.9a11.74 11.74 0 014.241-5.63C6.74.898 9.006.142 11.32.003zm61.84.802h3.3v22.021c-1.095 0-2.206.016-3.3-.015.015-7.325 0-14.666 0-22.006zM29.84 8.438c2.036-.385 4.241.046 5.922 1.265a7.244 7.244 0 012.915 4.626c.416 2.144-.108 4.488-1.496 6.184-1.496 1.897-3.948 2.915-6.338 2.76-2.19-.123-4.318-1.218-5.613-3.007-1.466-1.973-1.82-4.688-1.018-7 .802-2.484 3.069-4.38 5.628-4.828zm.463 2.93a4.146 4.146 0 00-2.159 1.373c-1.496 1.789-1.403 4.703.247 6.369.94.956 2.36 1.403 3.67 1.141 1.218-.216 2.283-1.033 2.869-2.113 1.017-1.835.724-4.364-.833-5.798-1.003-.925-2.468-1.311-3.794-.972zm15.884-2.93c2.329-.447 4.873.2 6.616 1.835 2.838 2.545 3.146 7.31.725 10.24-1.465 1.85-3.84 2.869-6.184 2.76-2.236-.061-4.442-1.171-5.768-3.007-1.496-2.02-1.82-4.796-.971-7.155.848-2.406 3.069-4.241 5.582-4.673zm.463 2.93a4.217 4.217 0 00-2.16 1.357c-1.48 1.758-1.418 4.627.17 6.308.941 1.002 2.406 1.496 3.763 1.218a4.23 4.23 0 002.869-2.113c1.002-1.85.71-4.38-.864-5.814a4.134 4.134 0 00-3.778-.956zm13.401-2.035c1.773-1.11 4.133-1.42 6.045-.463.602.262 1.095.71 1.573 1.157.016-.417 0-.849.016-1.28 1.033.015 2.066 0 3.115.015v13.602c-.016 2.05-.54 4.225-2.02 5.721-1.62 1.65-4.103 2.16-6.339 1.82-2.39-.355-4.472-2.098-5.397-4.303.925-.447 1.897-.802 2.853-1.218.54 1.264 1.635 2.344 3.007 2.59 1.373.247 2.961-.092 3.855-1.233.957-1.172.957-2.776.91-4.21-.71.694-1.526 1.31-2.513 1.542-2.144.602-4.504-.139-6.154-1.588-1.665-1.45-2.652-3.686-2.56-5.907.047-2.513 1.465-4.935 3.61-6.245zm3.192 1.974a4.05 4.05 0 00-2.42 1.403c-1.45 1.727-1.45 4.488.015 6.184.832 1.002 2.174 1.558 3.47 1.419 1.218-.124 2.343-.895 2.945-1.959 1.018-1.804.848-4.256-.524-5.83a3.795 3.795 0 00-3.486-1.217zm17.18-1.187c1.85-1.728 4.703-2.314 7.078-1.404 2.252.848 3.686 2.992 4.41 5.197-3.346 1.388-6.677 2.76-10.023 4.148.462.88 1.172 1.681 2.128 2.005 1.342.478 2.945.308 4.071-.586.447-.34.802-.787 1.141-1.218.849.57 1.697 1.125 2.545 1.696-1.203 1.804-3.223 3.069-5.397 3.27-2.406.292-4.966-.633-6.524-2.514-2.56-2.961-2.313-7.927.57-10.595zm1.65 2.852c-.524.756-.74 1.681-.725 2.59 2.236-.924 4.472-1.85 6.708-2.79-.37-.864-1.264-1.388-2.174-1.527-1.465-.262-2.992.524-3.81 1.727z"/>
  </g>
  <defs>
    <clipPath id="PWqOyCqiXOa">
      <path fill="#fff" d="M0 0h91.912v30H0z"/>
    </clipPath>
  </defs>
</svg>
