<svg xmlns="http://www.w3.org/2000/svg" fill="none" viewBox="0 0 101 30">
  <g clip-path="url(#bVMs-836Lwa)">
    <path d="M15 0C6.716 0 0 6.716 0 15c0 8.285 6.716 15 15 15 8.284 0 15-6.715 15-15 0-8.284-6.715-15-15-15zm6.879 21.634a.935.935 0 01-1.286.311c-3.522-2.153-7.956-2.64-13.177-1.446A.934.934 0 117 18.676c5.714-1.306 10.615-.744 14.569 1.672.44.27.58.846.31 1.286zm1.836-4.084a1.17 1.17 0 01-1.609.385c-4.031-2.478-10.178-3.195-14.947-1.748a1.171 1.171 0 01-1.46-.779 1.171 1.171 0 01.78-1.458c5.448-1.653 12.22-.853 16.85 1.993.55.338.724 1.058.386 1.607zm.157-4.253c-4.835-2.871-12.81-3.135-17.426-1.734a1.403 1.403 0 11-.814-2.685c5.298-1.609 14.106-1.298 19.672 2.006a1.403 1.403 0 01-1.431 2.413zm16.938.55c-2.59-.617-3.051-1.05-3.051-1.961 0-.86.81-1.44 2.015-1.44 1.168 0 2.326.44 3.54 1.345a.17.17 0 00.24-.038l1.264-1.783a.17.17 0 00-.032-.23c-1.445-1.16-3.072-1.723-4.974-1.723-2.796 0-4.75 1.678-4.75 4.079 0 2.575 1.685 3.486 4.597 4.19 2.478.571 2.897 1.05 2.897 1.904 0 .948-.846 1.537-2.207 1.537-1.512 0-2.745-.51-4.124-1.704a.177.177 0 00-.125-.04.168.168 0 00-.116.06l-1.418 1.687a.168.168 0 00.017.235c1.605 1.433 3.578 2.19 5.708 2.19 3.014 0 4.96-1.647 4.96-4.196.006-2.15-1.282-3.342-4.436-4.11l-.005-.002zm11.26-2.554c-1.307 0-2.378.515-3.262 1.569v-1.187a.17.17 0 00-.17-.17H46.32a.17.17 0 00-.17.17V24.86c0 .093.076.17.17.17h2.319a.17.17 0 00.17-.17v-4.162c.883.992 1.954 1.476 3.26 1.476 2.427 0 4.884-1.868 4.884-5.439.003-3.572-2.454-5.44-4.881-5.44h-.003zm2.186 5.441c0 1.819-1.12 3.088-2.724 3.088-1.586 0-2.782-1.327-2.782-3.088 0-1.76 1.196-3.088 2.782-3.088 1.578 0 2.724 1.298 2.724 3.088zm8.994-5.44c-3.126 0-5.574 2.406-5.574 5.479 0 3.04 2.431 5.42 5.535 5.42 3.137 0 5.593-2.398 5.593-5.459 0-3.05-2.44-5.44-5.554-5.44zm0 8.546c-1.663 0-2.916-1.336-2.916-3.107 0-1.778 1.21-3.069 2.877-3.069 1.674 0 2.935 1.336 2.935 3.108 0 1.778-1.218 3.068-2.896 3.068zm12.228-8.335h-2.552V8.896a.17.17 0 00-.169-.17h-2.319a.17.17 0 00-.17.17v2.61h-1.115a.17.17 0 00-.169.17v1.992c0 .094.076.17.17.17h1.114v5.157c0 2.084 1.038 3.141 3.083 3.141.832 0 1.522-.172 2.173-.54a.169.169 0 00.085-.148V19.55a.17.17 0 00-.245-.152 2.922 2.922 0 01-1.362.329c-.744 0-1.076-.338-1.076-1.095v-4.793h2.552a.17.17 0 00.17-.17v-1.993a.164.164 0 00-.167-.17h-.003zm8.892.01v-.32c0-.943.361-1.363 1.172-1.363.483 0 .871.096 1.306.241a.17.17 0 00.223-.161V7.957a.17.17 0 00-.12-.162 6.364 6.364 0 00-1.927-.277c-2.142 0-3.274 1.206-3.274 3.487v.49h-1.114a.17.17 0 00-.17.17v2.003c0 .094.076.17.17.17h1.114v7.955c0 .094.075.17.169.17h2.319a.17.17 0 00.17-.17v-7.954h2.165l3.317 7.952c-.377.836-.747 1.002-1.252 1.002-.409 0-.84-.122-1.28-.363a.174.174 0 00-.134-.012.171.171 0 00-.1.091l-.786 1.725a.169.169 0 00.073.22c.82.444 1.56.633 2.476.633 1.713 0 2.66-.797 3.493-2.943l4.024-10.396a.17.17 0 00-.158-.232h-2.414a.17.17 0 00-.16.114l-2.474 7.064-2.708-7.069a.17.17 0 00-.159-.109H84.37zm-5.155-.01h-2.32a.17.17 0 00-.17.17v10.118c0 .094.077.17.17.17h2.32a.17.17 0 00.17-.17V11.676a.169.169 0 00-.17-.17zM78.068 6.9a1.663 1.663 0 10-.004 3.326 1.663 1.663 0 00.005-3.326zm20.316 7.86a1.626 1.626 0 01-1.632-1.633c0-.895.723-1.64 1.64-1.64.918 0 1.632.736 1.632 1.63a1.64 1.64 0 01-1.64 1.642zm.009-3.111a1.46 1.46 0 00-1.469 1.478c0 .814.628 1.47 1.46 1.47a1.46 1.46 0 001.47-1.48c0-.813-.63-1.468-1.46-1.468h-.001zm.362 1.637l.461.646h-.389l-.416-.593h-.357v.593h-.326v-1.713h.764c.398 0 .66.204.66.546.002.281-.161.453-.396.52h-.001zm-.276-.773h-.425v.542h.425c.212 0 .338-.104.338-.272 0-.176-.127-.27-.338-.27z" fill="#000"/>
  </g>
  <defs>
    <clipPath id="bVMs-836Lwa">
      <path fill="#fff" d="M0 0h100.024v30H0z"/>
    </clipPath>
  </defs>
</svg>
