<svg xmlns="http://www.w3.org/2000/svg" fill="none" viewBox="0 0 307 221">
  <path d="M27.982 173.172H6.635A6.636 6.636 0 000 179.808v34.414a6.636 6.636 0 006.635 6.636h292.897a6.635 6.635 0 006.635-6.636V105.606c0-.956-.206-1.902-.606-2.771L264.518 13.55c-2.4-5.221-9.852-5.13-12.123.149l-41.517 96.482a6.635 6.635 0 01-6.095 4.012h-22.095a6.638 6.638 0 01-4.399-1.667l-2.766-2.449c-3.331-2.949-8.565-1.848-10.425 2.195l-8.858 19.248a4.728 4.728 0 01-8.719-.31l-23.688-62.914a6.636 6.636 0 00-6.21-4.298h-3.639a6.635 6.635 0 01-6.095-4.012l-.576-1.34a5.677 5.677 0 00-10.474.111l-23.343 57.569a6.635 6.635 0 01-6.148 4.142H55.174a6.636 6.636 0 00-6.292 4.529l-14.607 43.646a6.634 6.634 0 01-6.293 4.529z" fill="url(#dGQZV8wnkca)"/>
  <path d="M1.896 173.463H29.45a6.635 6.635 0 006.301-4.556l14.414-43.681a6.635 6.635 0 016.301-4.556H68.33a6.635 6.635 0 006.161-4.172l23.062-57.685a5.575 5.575 0 015.177-3.506v0a5.575 5.575 0 015.132 3.398l.576 1.357a6.635 6.635 0 006.108 4.044h3.437a6.634 6.634 0 016.22 4.326l23.401 63.037a4.645 4.645 0 004.354 3.028v0a4.645 4.645 0 004.229-2.725l8.711-19.199c1.853-4.084 7.139-5.192 10.475-2.196l2.573 2.31a6.635 6.635 0 004.433 1.698h21.685a6.637 6.637 0 006.109-4.044l40.906-96.417c2.257-5.32 9.766-5.412 12.152-.147l41.041 90.552" stroke="#4F46BA" stroke-width="2.844" stroke-linecap="round" stroke-linejoin="round"/>
  <defs>
    <linearGradient id="dGQZV8wnkca" x1="153.084" y1="0" x2="153.084" y2="220.858" gradientUnits="userSpaceOnUse">
      <stop stop-color="#4F46BA" stop-opacity=".21"/>
      <stop offset="1" stop-color="#fff" stop-opacity="0"/>
    </linearGradient>
  </defs>
</svg>
